HIERARCHY
ROOT Hips
{
	OFFSET 0.000000 8.830580 0.000000
	CHANNELS 6 Xposition Yposition Zposition Zrotation Yrotation Xrotation 
	JOINT Spine
	{
		OFFSET 0.000000 0.010000 0.000000
		CHANNELS 3 Zrotation Yrotation Xrotation
		JOINT Spine1
		{
			OFFSET 0.000000 2.459130 0.000000
			CHANNELS 3 Zrotation Yrotation Xrotation
			JOINT Neck
			{
				OFFSET 0.000000 2.484630 0.000000
				CHANNELS 3 Zrotation Yrotation Xrotation
				JOINT Head_virtual
				{
					OFFSET 0.000000 0.000000 0.000000
					CHANNELS 3 Zrotation Yrotation Xrotation
					JOINT Head
					{
						OFFSET 0.000000 0.927525 0.000000
						CHANNELS 3 Zrotation Yrotation Xrotation
						End Site
						{
							OFFSET 0.000000 0.000000 0.000000
						}
					}
				}
				JOINT LeftUpArm_virtual
				{
					OFFSET 0.000000 0.000000 0.000000
					CHANNELS 3 Zrotation Yrotation Xrotation
					JOINT LeftUpArm
					{
						OFFSET 1.248820 0.000000 0.000000
						CHANNELS 3 Zrotation Yrotation Xrotation
						JOINT LeftForeArm
						{
							OFFSET 2.597580 0.000000 0.000000
							CHANNELS 3 Zrotation Yrotation Xrotation
							JOINT LeftHand
							{
								OFFSET 2.455420 0.000000 0.000000
								CHANNELS 3 Zrotation Yrotation Xrotation
								End Site
								{
									OFFSET 0.000000 0.000000 0.000000
								}
							}
						}
					}
				}
				JOINT RightUpArm_virtual
				{
					OFFSET -0.000000 -0.000000 -0.000000
					CHANNELS 3 Zrotation Yrotation Xrotation
					JOINT RightUpArm
					{
						OFFSET -1.248820 -0.000000 -0.000000
						CHANNELS 3 Zrotation Yrotation Xrotation
						JOINT RightForeArm
						{
							OFFSET -2.597580 -0.000000 -0.000000
							CHANNELS 3 Zrotation Yrotation Xrotation
							JOINT RightHand
							{
								OFFSET -2.455420 -0.000000 -0.000000
								CHANNELS 3 Zrotation Yrotation Xrotation
								End Site
								{
									OFFSET 0.000000 0.000000 0.000000
								}
							}
						}
					}
				}
			}
		}
	}
	JOINT LeftUpLeg
	{
		OFFSET 1.271939 0.000000 0.000000
		CHANNELS 3 Zrotation Yrotation Xrotation
		JOINT LeftLowLeg
		{
			OFFSET 0.000000 -4.342910 0.000000
			CHANNELS 3 Zrotation Yrotation Xrotation
			JOINT LeftFoot
			{
				OFFSET 0.000000 -4.487670 0.000000
				CHANNELS 3 Zrotation Yrotation Xrotation
				JOINT LeftToeBase
				{
					OFFSET 0.000000 0.000000 1.515070
					CHANNELS 3 Zrotation Yrotation Xrotation
					End Site
					{
						OFFSET 0.000000 0.000000 0.000000
					}
				}
			}
		}
	}
	JOINT RightUpLeg
	{
		OFFSET -1.271939 0.000000 0.000000
		CHANNELS 3 Zrotation Yrotation Xrotation
		JOINT RightLowLeg
		{
			OFFSET 0.000000 -4.342910 0.000000
			CHANNELS 3 Zrotation Yrotation Xrotation
			JOINT RightFoot
			{
				OFFSET 0.000000 -4.487670 0.000000
				CHANNELS 3 Zrotation Yrotation Xrotation
				JOINT RightToeBase
				{
					OFFSET 0.000000 0.000000 1.515070
					CHANNELS 3 Zrotation Yrotation Xrotation
					End Site
					{
						OFFSET 0.000000 0.000000 0.000000
					}
				}
			}
		}
	}
}
MOTION
Frames: 11
Frame Time: 0.041667
-19.579121 5.376092 45.707247 -171.717226 2.427082 142.347748 7.067996 -3.250214 0.918045 -1.699282 -3.858125 13.248870 0.000000 0.000000 0.000000 4.071335 -8.552663 32.619098 -19.874156 15.749459 -65.734805 -8.775260 10.663800 -4.944010 45.104599 -39.145000 -75.658798 -180.000000 -40.981003 180.000000 44.478100 2.913930 5.842250 13.376100 -11.443100 -6.357750 -35.787701 30.543800 -54.947498 180.000000 40.802994 180.000000 -60.285400 12.484500 6.826330 6.864773 -8.089742 -42.810638 0.000000 0.000000 17.805000 -6.520517 -4.101827 38.553770 0.000000 0.000000 -29.197500 3.108302 4.784954 -41.166878 0.000000 0.000000 12.676400 15.374815 -5.031860 39.858914 0.000000 0.000000 -28.768800 
-19.577570 5.376686 45.703073 -171.688263 2.373752 142.369439 7.062563 -3.223708 0.894344 -1.705297 -3.831522 13.259676 0.000000 0.000000 0.000000 4.134944 -8.734882 32.650480 -19.987874 15.854081 -65.655951 -8.766280 10.689000 -5.042830 44.903999 -39.089600 -75.446098 180.000000 -40.925995 -180.000000 44.299500 2.935520 5.880550 13.414000 -11.455900 -6.450000 -35.660000 30.224501 -54.824902 -180.000000 40.718002 -180.000000 -59.818001 12.457100 6.923760 6.741818 -8.183013 -42.915627 0.000000 0.000000 17.796301 -6.753654 -4.336154 38.652346 0.000000 0.000000 -29.152000 3.019644 5.046510 -41.266300 0.000000 0.000000 12.679000 15.163548 -4.914206 40.280958 0.000000 0.000000 -29.044500 
-19.577058 5.377442 45.701342 -171.720018 2.343717 142.455480 7.012607 -3.160807 0.844584 -1.628944 -3.766325 13.301554 0.000000 0.000000 0.000000 4.146995 -8.762213 32.828561 -20.063926 15.812554 -65.842836 -8.698600 10.763000 -5.126730 44.500099 -39.145199 -75.216202 -180.000000 -40.774002 180.000000 43.992298 2.954470 5.904400 13.407400 -11.533500 -6.541320 -35.551300 30.015900 -54.918800 180.000000 40.634995 180.000000 -59.319599 12.394700 6.931060 6.552394 -8.184310 -43.032797 0.000000 0.000000 17.665800 -6.862965 -4.401896 38.767401 0.000000 0.000000 -29.101400 3.037428 5.201939 -41.439202 0.000000 0.000000 12.757500 15.077408 -5.175144 40.573500 0.000000 0.000000 -29.079100 
-19.577226 5.379381 45.699693 -171.733911 2.255226 142.458783 6.972684 -3.127866 0.825316 -1.619147 -3.732838 13.356058 0.000000 0.000000 0.000000 4.175966 -8.876640 32.906117 -20.154787 15.862193 -65.778830 -8.689810 10.762700 -5.088190 44.304298 -39.116501 -75.050102 -180.000000 -40.716995 180.000000 43.924599 3.084620 5.862410 13.457900 -11.469800 -6.467460 -35.535702 29.674900 -55.094501 -180.000000 40.595993 180.000000 -59.008598 12.312300 6.792510 6.257233 -8.184716 -43.058535 0.000000 0.000000 17.554399 -6.853377 -4.252211 38.815263 0.000000 0.000000 -29.092900 3.386259 4.878299 -41.522914 0.000000 0.000000 13.065700 14.729194 -5.510946 40.512505 0.000000 0.000000 -28.744000 
-19.577656 5.380278 45.698649 -171.727848 2.187315 142.428469 6.956406 -3.093693 0.845870 -1.610423 -3.697121 13.457632 0.000000 0.000000 0.000000 4.226989 -9.030249 32.945083 -20.293313 15.931031 -65.773832 -8.697040 10.824600 -5.099470 44.277000 -39.179501 -74.993301 -180.000000 -40.729004 180.000000 43.835999 3.199830 5.916850 13.493500 -11.449000 -6.493110 -35.507500 29.488701 -55.270100 180.000000 40.606003 180.000000 -58.674801 12.203000 6.719180 5.801028 -7.934269 -43.121724 0.000000 0.000000 17.662901 -6.849940 -4.120464 38.863144 0.000000 0.000000 -29.099800 3.791460 4.455801 -41.607308 0.000000 0.000000 13.475800 14.401049 -5.668263 40.580121 0.000000 0.000000 -28.771700 
-19.578644 5.379029 45.699784 -171.702693 2.185559 142.438090 7.017165 -3.016610 0.898077 -1.612843 -3.620682 13.401346 0.000000 0.000000 0.000000 4.218847 -9.024610 32.891056 -20.104031 15.932102 -65.597828 -8.708420 10.805900 -5.085910 44.300900 -39.312000 -74.874100 -180.000000 -40.815994 -180.000000 43.936001 3.191120 5.988240 13.527900 -11.378300 -6.402630 -35.569302 29.290899 -55.452702 -180.000000 40.623001 -180.000000 -58.662300 12.070400 6.332390 5.502467 -7.731337 -43.282450 0.000000 0.000000 17.857599 -6.790901 -4.097754 38.889647 0.000000 0.000000 -28.984400 4.040339 4.299840 -41.735504 0.000000 0.000000 13.815400 14.098075 -5.541097 40.656539 0.000000 0.000000 -28.482700 
-19.578471 5.378928 45.701560 -171.710451 2.200319 142.459917 7.055910 -2.925431 0.923581 -1.631032 -3.527980 13.489146 0.000000 0.000000 0.000000 4.163854 -8.782810 33.031418 -19.698318 15.775326 -65.759143 -8.715490 10.851800 -5.127750 44.384102 -39.441700 -74.946800 -180.000000 -40.834000 180.000000 44.037300 3.142920 5.940330 13.570800 -11.441900 -6.370390 -35.640499 29.250700 -55.679501 -180.000000 40.647995 180.000000 -58.550999 12.173700 6.800530 5.281237 -7.524095 -43.416195 0.000000 0.000000 17.953699 -6.774708 -4.258947 38.925165 0.000000 0.000000 -29.014300 4.044947 4.462744 -41.801538 0.000000 0.000000 13.952800 13.775750 -5.374932 40.729063 0.000000 0.000000 -28.829700 
-19.576919 5.379995 45.703548 -171.724201 2.225726 142.481252 7.036331 -2.859438 0.899560 -1.593642 -3.460993 13.505498 0.000000 0.000000 0.000000 4.204234 -8.942872 32.851837 -19.879719 16.003125 -65.326121 -8.661380 10.735800 -5.042050 44.341099 -39.462200 -74.860298 -180.000000 -40.832993 -180.000000 43.873199 3.170950 6.392060 13.535600 -11.323100 -6.260520 -35.587200 29.279301 -55.675301 -180.000000 40.697998 -180.000000 -58.514801 12.266700 6.931890 5.138358 -7.361966 -43.492655 0.000000 0.000000 17.945101 -6.805492 -4.312104 38.962140 0.000000 0.000000 -29.126000 3.950092 4.813101 -41.761448 0.000000 0.000000 13.887000 13.877197 -5.868125 40.607914 0.000000 0.000000 -28.876700 
-19.576292 5.381611 45.704787 -171.760836 2.187997 142.447782 6.954244 -2.852144 0.905411 -1.542539 -3.453667 13.539958 0.000000 0.000000 0.000000 4.166505 -8.931127 32.998113 -19.970022 15.970396 -65.252645 -8.636000 10.694900 -4.890350 44.375000 -39.452099 -74.929901 -180.000000 -40.843002 180.000000 43.816502 3.219200 6.516890 13.482800 -11.211500 -6.122250 -35.570999 29.394300 -55.616501 180.000000 40.757004 -180.000000 -58.583500 12.220100 6.808130 4.934963 -7.266741 -43.464717 0.000000 0.000000 17.887600 -6.617905 -4.220267 38.866095 0.000000 0.000000 -29.062000 4.029472 4.816496 -41.643258 0.000000 0.000000 13.911800 13.833622 -6.383445 40.428755 0.000000 0.000000 -28.860500 
-19.576642 5.382536 45.706059 -171.766839 2.076755 142.424217 6.889669 -2.879890 0.906749 -1.552544 -3.483518 13.527468 0.000000 0.000000 0.000000 4.054315 -8.680052 33.172395 -19.633771 15.827376 -65.080878 -8.618350 10.660600 -4.810220 44.420898 -39.533600 -74.992500 -180.000000 -40.919006 -180.000000 43.388000 3.255360 7.659820 13.471000 -11.118100 -6.042760 -35.572601 29.625900 -55.498600 180.000000 40.860001 180.000000 -58.782600 12.253200 6.958120 4.823195 -7.398761 -43.489151 0.000000 0.000000 17.886101 -6.620373 -4.011740 38.848381 0.000000 0.000000 -29.051100 4.286042 4.449341 -41.600729 0.000000 0.000000 14.165900 13.683069 -6.587507 40.276481 0.000000 0.000000 -28.876800 
-19.577283 5.382117 45.707850 -171.740886 2.029678 142.414503 6.912755 -2.852598 0.926132 -1.570968 -3.456822 13.513453 0.000000 0.000000 0.000000 4.124386 -8.929211 33.265078 -20.041401 15.967463 -65.064256 -8.646360 10.642500 -4.754150 44.590900 -39.698799 -75.264503 -180.000000 -41.048996 -180.000000 43.604099 3.297860 6.710560 13.422500 -11.130500 -6.032360 -35.530601 29.824800 -55.342499 180.000000 40.904007 180.000000 -58.936699 12.255600 6.635350 4.664070 -7.373281 -43.569516 0.000000 0.000000 18.030800 -6.572545 -3.904029 38.795000 0.000000 0.000000 -29.064700 4.720798 3.948196 -41.620102 0.000000 0.000000 14.531100 13.357025 -6.418104 40.336138 0.000000 0.000000 -29.000400 
